<svg aria-roledescription="mindmap" role="graphics-document document" viewBox="5 5 1092.43798828125 360.781494140625" style="max-width: 1092.43798828125px;" xmlns="http://www.w3.org/2000/svg" width="100%" id="graph1"><style>#graph1{font-family:"trebuchet ms",verdana,arial,sans-serif;font-size:16px;fill:#333;}#graph1 .error-icon{fill:#552222;}#graph1 .error-text{fill:#552222;stroke:#552222;}#graph1 .edge-thickness-normal{stroke-width:2px;}#graph1 .edge-thickness-thick{stroke-width:3.5px;}#graph1 .edge-pattern-solid{stroke-dasharray:0;}#graph1 .edge-pattern-dashed{stroke-dasharray:3;}#graph1 .edge-pattern-dotted{stroke-dasharray:2;}#graph1 .marker{fill:#333333;stroke:#333333;}#graph1 .marker.cross{stroke:#333333;}#graph1 svg{font-family:"trebuchet ms",verdana,arial,sans-serif;font-size:16px;}#graph1 .edge{stroke-width:3;}#graph1 .section--1 rect,#graph1 .section--1 path,#graph1 .section--1 circle,#graph1 .section--1 polygon,#graph1 .section--1 path{fill:hsl(240, 100%, 76.2745098039%);}#graph1 .section--1 text{fill:#ffffff;}#graph1 .node-icon--1{font-size:40px;color:#ffffff;}#graph1 .section-edge--1{stroke:hsl(240, 100%, 76.2745098039%);}#graph1 .edge-depth--1{stroke-width:17;}#graph1 .section--1 line{stroke:hsl(60, 100%, 86.2745098039%);stroke-width:3;}#graph1 .disabled,#graph1 .disabled circle,#graph1 .disabled text{fill:lightgray;}#graph1 .disabled text{fill:#efefef;}#graph1 .section-0 rect,#graph1 .section-0 path,#graph1 .section-0 circle,#graph1 .section-0 polygon,#graph1 .section-0 path{fill:hsl(60, 100%, 73.5294117647%);}#graph1 .section-0 text{fill:black;}#graph1 .node-icon-0{font-size:40px;color:black;}#graph1 .section-edge-0{stroke:hsl(60, 100%, 73.5294117647%);}#graph1 .edge-depth-0{stroke-width:14;}#graph1 .section-0 line{stroke:hsl(240, 100%, 83.5294117647%);stroke-width:3;}#graph1 .disabled,#graph1 .disabled circle,#graph1 .disabled text{fill:lightgray;}#graph1 .disabled text{fill:#efefef;}#graph1 .section-1 rect,#graph1 .section-1 path,#graph1 .section-1 circle,#graph1 .section-1 polygon,#graph1 .section-1 path{fill:hsl(80, 100%, 76.2745098039%);}#graph1 .section-1 text{fill:black;}#graph1 .node-icon-1{font-size:40px;color:black;}#graph1 .section-edge-1{stroke:hsl(80, 100%, 76.2745098039%);}#graph1 .edge-depth-1{stroke-width:11;}#graph1 .section-1 line{stroke:hsl(260, 100%, 86.2745098039%);stroke-width:3;}#graph1 .disabled,#graph1 .disabled circle,#graph1 .disabled text{fill:lightgray;}#graph1 .disabled text{fill:#efefef;}#graph1 .section-2 rect,#graph1 .section-2 path,#graph1 .section-2 circle,#graph1 .section-2 polygon,#graph1 .section-2 path{fill:hsl(270, 100%, 76.2745098039%);}#graph1 .section-2 text{fill:#ffffff;}#graph1 .node-icon-2{font-size:40px;color:#ffffff;}#graph1 .section-edge-2{stroke:hsl(270, 100%, 76.2745098039%);}#graph1 .edge-depth-2{stroke-width:8;}#graph1 .section-2 line{stroke:hsl(90, 100%, 86.2745098039%);stroke-width:3;}#graph1 .disabled,#graph1 .disabled circle,#graph1 .disabled text{fill:lightgray;}#graph1 .disabled text{fill:#efefef;}#graph1 .section-3 rect,#graph1 .section-3 path,#graph1 .section-3 circle,#graph1 .section-3 polygon,#graph1 .section-3 path{fill:hsl(300, 100%, 76.2745098039%);}#graph1 .section-3 text{fill:black;}#graph1 .node-icon-3{font-size:40px;color:black;}#graph1 .section-edge-3{stroke:hsl(300, 100%, 76.2745098039%);}#graph1 .edge-depth-3{stroke-width:5;}#graph1 .section-3 line{stroke:hsl(120, 100%, 86.2745098039%);stroke-width:3;}#graph1 .disabled,#graph1 .disabled circle,#graph1 .disabled text{fill:lightgray;}#graph1 .disabled text{fill:#efefef;}#graph1 .section-4 rect,#graph1 .section-4 path,#graph1 .section-4 circle,#graph1 .section-4 polygon,#graph1 .section-4 path{fill:hsl(330, 100%, 76.2745098039%);}#graph1 .section-4 text{fill:black;}#graph1 .node-icon-4{font-size:40px;color:black;}#graph1 .section-edge-4{stroke:hsl(330, 100%, 76.2745098039%);}#graph1 .edge-depth-4{stroke-width:2;}#graph1 .section-4 line{stroke:hsl(150, 100%, 86.2745098039%);stroke-width:3;}#graph1 .disabled,#graph1 .disabled circle,#graph1 .disabled text{fill:lightgray;}#graph1 .disabled text{fill:#efefef;}#graph1 .section-5 rect,#graph1 .section-5 path,#graph1 .section-5 circle,#graph1 .section-5 polygon,#graph1 .section-5 path{fill:hsl(0, 100%, 76.2745098039%);}#graph1 .section-5 text{fill:black;}#graph1 .node-icon-5{font-size:40px;color:black;}#graph1 .section-edge-5{stroke:hsl(0, 100%, 76.2745098039%);}#graph1 .edge-depth-5{stroke-width:-1;}#graph1 .section-5 line{stroke:hsl(180, 100%, 86.2745098039%);stroke-width:3;}#graph1 .disabled,#graph1 .disabled circle,#graph1 .disabled text{fill:lightgray;}#graph1 .disabled text{fill:#efefef;}#graph1 .section-6 rect,#graph1 .section-6 path,#graph1 .section-6 circle,#graph1 .section-6 polygon,#graph1 .section-6 path{fill:hsl(30, 100%, 76.2745098039%);}#graph1 .section-6 text{fill:black;}#graph1 .node-icon-6{font-size:40px;color:black;}#graph1 .section-edge-6{stroke:hsl(30, 100%, 76.2745098039%);}#graph1 .edge-depth-6{stroke-width:-4;}#graph1 .section-6 line{stroke:hsl(210, 100%, 86.2745098039%);stroke-width:3;}#graph1 .disabled,#graph1 .disabled circle,#graph1 .disabled text{fill:lightgray;}#graph1 .disabled text{fill:#efefef;}#graph1 .section-7 rect,#graph1 .section-7 path,#graph1 .section-7 circle,#graph1 .section-7 polygon,#graph1 .section-7 path{fill:hsl(90, 100%, 76.2745098039%);}#graph1 .section-7 text{fill:black;}#graph1 .node-icon-7{font-size:40px;color:black;}#graph1 .section-edge-7{stroke:hsl(90, 100%, 76.2745098039%);}#graph1 .edge-depth-7{stroke-width:-7;}#graph1 .section-7 line{stroke:hsl(270, 100%, 86.2745098039%);stroke-width:3;}#graph1 .disabled,#graph1 .disabled circle,#graph1 .disabled text{fill:lightgray;}#graph1 .disabled text{fill:#efefef;}#graph1 .section-8 rect,#graph1 .section-8 path,#graph1 .section-8 circle,#graph1 .section-8 polygon,#graph1 .section-8 path{fill:hsl(150, 100%, 76.2745098039%);}#graph1 .section-8 text{fill:black;}#graph1 .node-icon-8{font-size:40px;color:black;}#graph1 .section-edge-8{stroke:hsl(150, 100%, 76.2745098039%);}#graph1 .edge-depth-8{stroke-width:-10;}#graph1 .section-8 line{stroke:hsl(330, 100%, 86.2745098039%);stroke-width:3;}#graph1 .disabled,#graph1 .disabled circle,#graph1 .disabled text{fill:lightgray;}#graph1 .disabled text{fill:#efefef;}#graph1 .section-9 rect,#graph1 .section-9 path,#graph1 .section-9 circle,#graph1 .section-9 polygon,#graph1 .section-9 path{fill:hsl(180, 100%, 76.2745098039%);}#graph1 .section-9 text{fill:black;}#graph1 .node-icon-9{font-size:40px;color:black;}#graph1 .section-edge-9{stroke:hsl(180, 100%, 76.2745098039%);}#graph1 .edge-depth-9{stroke-width:-13;}#graph1 .section-9 line{stroke:hsl(0, 100%, 86.2745098039%);stroke-width:3;}#graph1 .disabled,#graph1 .disabled circle,#graph1 .disabled text{fill:lightgray;}#graph1 .disabled text{fill:#efefef;}#graph1 .section-10 rect,#graph1 .section-10 path,#graph1 .section-10 circle,#graph1 .section-10 polygon,#graph1 .section-10 path{fill:hsl(210, 100%, 76.2745098039%);}#graph1 .section-10 text{fill:black;}#graph1 .node-icon-10{font-size:40px;color:black;}#graph1 .section-edge-10{stroke:hsl(210, 100%, 76.2745098039%);}#graph1 .edge-depth-10{stroke-width:-16;}#graph1 .section-10 line{stroke:hsl(30, 100%, 86.2745098039%);stroke-width:3;}#graph1 .disabled,#graph1 .disabled circle,#graph1 .disabled text{fill:lightgray;}#graph1 .disabled text{fill:#efefef;}#graph1 .section-root rect,#graph1 .section-root path,#graph1 .section-root circle,#graph1 .section-root polygon{fill:hsl(240, 100%, 46.2745098039%);}#graph1 .section-root text{fill:#ffffff;}#graph1 .icon-container{height:100%;display:flex;justify-content:center;align-items:center;}#graph1 .edge{fill:none;}#graph1 .mindmap-node-label{dy:1em;alignment-baseline:middle;text-anchor:middle;dominant-baseline:middle;text-align:center;}#graph1 :root{--mermaid-font-family:"trebuchet ms",verdana,arial,sans-serif;}</style><g></g><g></g><g class="mindmap-edges"><path class="edge section-edge-0 edge-depth-1" d="M 727.602294644803,175.27856391632008 L 630.3080394929186,140.79920337464384 L533.0137843410342,106.3198428329676"></path><path class="edge section-edge-0 edge-depth-1" d="M 727.1725219718344,176.71589644261374 L 682.2366318288191,165.69466932896304 L637.3007416858038,154.67344221531235"></path><path class="edge section-edge-0 edge-depth-1" d="M 756.3794863961273,177.01679330218036 L 798.0755371692219,167.69650871658925 L839.7715879423165,158.37622413099814"></path><path class="edge section-edge-0 edge-depth-1" d="M 726.7627420503236,181.10106047491794 L 638.4008910023225,185.8918838899681 L550.0390399543214,190.68270730501828"></path><path class="edge section-edge-0 edge-depth-1" d="M 732.0084845757691,168.8748157926521 L 692.2493296269364,122.24458129598443 L652.4901746781037,75.61434679931676"></path><path class="edge section-edge-0 edge-depth-1" d="M 740.5207876979468,195.23928766786244 L 735.8175588872414,252.87639550080837 L731.1143300765359,310.51350333375433"></path><path class="edge section-edge-0 edge-depth-1" d="M 745.6918943739132,165.81872034453906 L 761.7267347909774,107.09448985470615 L777.7615752080416,48.37025936487325"></path><path class="edge section-edge-0 edge-depth-1" d="M 745.9028346098429,165.8779770769814 L 752.314346925848,143.6784825197074 L758.7258592418531,121.47898796243337"></path><path class="edge section-edge-0 edge-depth-1" d="M 729.4123955485455,188.83367624731255 L 703.6539031740162,206.6867173058661 L677.895410799487,224.53975836441964"></path><path class="edge section-edge-0 edge-depth-1" d="M 756.7400740732411,180.14727665819265 L 873.3100661714737,179.04600594581873 L989.8800582697064,177.94473523344482"></path><path class="edge section-edge-0 edge-depth-1" d="M 729.8923306407098,189.48762715181124 L 676.6660760994123,230.81042368166305 L623.4398215581148,272.13322021151487"></path><path class="edge section-edge-0 edge-depth-1" d="M 755.6995898825104,185.77993638834513 L 793.6664988947856,200.71488485129393 L831.6334079070608,215.64983331424273"></path><path class="edge section-edge-0 edge-depth-1" d="M 754.6786568975742,172.69882854660443 L 840.1843836175415,122.53607302340785 L925.6901103375087,72.37331750021127"></path><path class="edge section-edge-0 edge-depth-1" d="M 747.987323557409,193.9264368222185 L 762.2577378277848,225.08143013144104 L776.5281520981606,256.2364234406636"></path><path class="edge section-edge-0 edge-depth-1" d="M 753.5319194517169,189.56088175979164 L 822.7390687140285,243.98139987072756 L891.94621797634,298.4019179816634"></path><path class="edge section-edge-0 edge-depth-1" d="M 756.2513107486031,176.48852768253772 L 863.1148606292447,148.49997386798614 L969.9784105098863,120.51142005343456"></path><path class="edge section-edge-0 edge-depth-1" d="M 755.9963018033368,184.95578321815105 L 864.6651975911104,220.53042507214798 L973.3340933788838,256.10506692614496"></path><path class="edge section-edge-0 edge-depth-1" d="M 727.1136027722083,183.61264585762487 L 607.2334481256373,210.85252968844534 L487.35329347906634,238.09241351926582"></path><path class="edge section-edge-0 edge-depth-0" d="M 443.8981746121472,152.00509184770402 L 585.3530490666997,165.43800650012648 L726.8079235212522,178.87092115254893"></path><path class="edge section-edge-1 edge-depth-1" d="M 209.82354216950458,238.61301782845703 L 140.98086541768345,231.2761213254273 L72.13818866586232,223.93922482239765"></path><path class="edge section-edge-1 edge-depth-1" d="M 224.12671862405637,225.21514268474903 L 222.81737657827887,193.1688179861976 L221.50803453250137,161.12249328764625"></path><path class="edge section-edge-1 edge-depth-1" d="M 210.59654368640813,245.20151999736115 L 153.50392878012804,265.3817295077526 L96.41131387384794,285.5619390181441"></path><path class="edge section-edge-1 edge-depth-1" d="M 212.84392026868952,231.06451449848402 L 176.28135905685707,202.97633705252755 L139.71879784502462,174.8881596065711"></path><path class="edge section-edge-1 edge-depth-1" d="M 233.58492798687544,252.31671580710656 L 256.0890083619423,283.1352434267424 L278.59308873700917,313.9537710463783"></path><path class="edge section-edge-1 edge-depth-1" d="M 238.77458242596785,234.91070847290018 L 283.9205372601502,217.88893621613664 L329.0664920943325,200.86716395937316"></path><path class="edge section-edge-1 edge-depth-1" d="M 239.1108433856734,244.4982477120047 L 296.1686012671429,261.55236638190587 L353.22635914861235,278.60648505180706"></path><path class="edge section-edge-1 edge-depth-1" d="M 217.44399643838932,253.30919508549323 L 197.83346041262587,288.5420742778958 L178.22292438686242,323.7749534702983"></path><path class="edge section-edge-1 edge-depth-0" d="M 415.22958757017284,156.61436278273732 L 326.85221465271695,195.39483571801384 L238.4748417352611,234.1753086532903"></path><path class="edge section-edge-2 edge-depth-0" d="M 415.3869411840723,144.21312665161878 L 371.2066872662511,123.4742669149625 L327.02643334842986,102.73540717830622"></path><path class="edge section-edge-3 edge-depth-0" d="M 425.6729573762297,135.95282269613165 L 417.94843250180116,101.6184723881266 L410.2239076273726,67.28412208012156"></path></g><g class="mindmap-nodes"><g transform="translate(347.242698470067, 131.68703329084065)" class="mindmap-node section--1 section-root"><g transform="translate(81.72265625, 18.9)"><circle r="81.72265625" class="node-bkg node-circle" id="node-0"></circle></g><g transform="translate(81.72265625, 5)" text-anchor="middle" dominant-baseline="middle" alignment-baseline="middle" dy="1em"><g><rect class="background"></rect><text y="-10.1"><tspan dy="1.1em" y="-0.1em" x="0" class="text-outer-tspan"><tspan font-weight="normal" class="text-inner-tspan" font-style="normal">MongoDBOperations</tspan></tspan></text></g></g></g><g transform="translate(701.4087121633324, 161.3889797094123)" class="mindmap-node section-0"><g><path d="M0 32.8 v-27.799999999999997 q0,-5 5,-5 h70.6640625 q5,0 5,5 v32.8 H0 Z" class="node-bkg node-no-border" id="node-1"></path><line y2="37.8" x2="80.6640625" y1="37.8" x1="0" class="node-line-0"></line></g><g transform="translate(40.33203125, 5)" text-anchor="middle" dominant-baseline="middle" alignment-baseline="middle" dy="1em"><g><rect class="background"></rect><text y="-10.1"><tspan dy="1.1em" y="-0.1em" x="0" class="text-outer-tspan"><tspan font-weight="normal" class="text-inner-tspan" font-style="normal">Methods</tspan></tspan></text></g></g></g><g transform="translate(448.0003355725048, 82.40942703987537)" class="mindmap-node section-0"><g><path d="M0 32.8 v-27.799999999999997 q0,-5 5,-5 h131.75 q5,0 5,5 v32.8 H0 Z" class="node-bkg node-no-border" id="node-2"></path><line y2="37.8" x2="141.75" y1="37.8" x1="0" class="node-line-0"></line></g><g transform="translate(70.875, 5)" text-anchor="middle" dominant-baseline="middle" alignment-baseline="middle" dy="1em"><g><rect class="background"></rect><text y="-10.1"><tspan dy="1.1em" y="-0.1em" x="0" class="text-outer-tspan"><tspan font-weight="normal" class="text-inner-tspan" font-style="normal">_get</tspan><tspan font-weight="normal" class="text-inner-tspan" font-style="normal"> _user</tspan><tspan font-weight="normal" class="text-inner-tspan" font-style="normal"> _data</tspan></tspan></text></g></g></g><g transform="translate(551.0958014943058, 132.20035894851378)" class="mindmap-node section-0"><g><path d="M0 32.8 v-27.799999999999997 q0,-5 5,-5 h133.2734375 q5,0 5,5 v32.8 H0 Z" class="node-bkg node-no-border" id="node-3"></path><line y2="37.8" x2="143.2734375" y1="37.8" x1="0" class="node-line-0"></line></g><g transform="translate(71.63671875, 5)" text-anchor="middle" dominant-baseline="middle" alignment-baseline="middle" dy="1em"><g><rect class="background"></rect><text y="-10.1"><tspan dy="1.1em" y="-0.1em" x="0" class="text-outer-tspan"><tspan font-weight="normal" class="text-inner-tspan" font-style="normal">get</tspan><tspan font-weight="normal" class="text-inner-tspan" font-style="normal"> _user</tspan><tspan font-weight="normal" class="text-inner-tspan" font-style="normal"> _by</tspan><tspan font-weight="normal" class="text-inner-tspan" font-style="normal"> _id</tspan></tspan></text></g></g></g><g transform="translate(799.1603309251113, 136.2040377237662)" class="mindmap-node section-0"><g><path d="M0 32.8 v-27.799999999999997 q0,-5 5,-5 h100.5 q5,0 5,5 v32.8 H0 Z" class="node-bkg node-no-border" id="node-4"></path><line y2="37.8" x2="110.5" y1="37.8" x1="0" class="node-line-0"></line></g><g transform="translate(55.25, 5)" text-anchor="middle" dominant-baseline="middle" alignment-baseline="middle" dy="1em"><g><rect class="background"></rect><text y="-10.1"><tspan dy="1.1em" y="-0.1em" x="0" class="text-outer-tspan"><tspan font-weight="normal" class="text-inner-tspan" font-style="normal">create</tspan><tspan font-weight="normal" class="text-inner-tspan" font-style="normal"> _user</tspan></tspan></text></g></g></g><g transform="translate(456.9751010913126, 172.59478807052392)" class="mindmap-node section-0"><g><path d="M0 32.8 v-27.799999999999997 q0,-5 5,-5 h146.171875 q5,0 5,5 v32.8 H0 Z" class="node-bkg node-no-border" id="node-5"></path><line y2="37.8" x2="156.171875" y1="37.8" x1="0" class="node-line-0"></line></g><g transform="translate(78.0859375, 5)" text-anchor="middle" dominant-baseline="middle" alignment-baseline="middle" dy="1em"><g><rect class="background"></rect><text y="-10.1"><tspan dy="1.1em" y="-0.1em" x="0" class="text-outer-tspan"><tspan font-weight="normal" class="text-inner-tspan" font-style="normal">authenticate</tspan><tspan font-weight="normal" class="text-inner-tspan" font-style="normal"> _user</tspan></tspan></text></g></g></g><g transform="translate(571.5079158405404, 45.30018288255656)" class="mindmap-node section-0"><g><path d="M0 32.8 v-27.799999999999997 q0,-5 5,-5 h132.5 q5,0 5,5 v32.8 H0 Z" class="node-bkg node-no-border" id="node-6"></path><line y2="37.8" x2="142.5" y1="37.8" x1="0" class="node-line-0"></line></g><g transform="translate(71.25, 5)" text-anchor="middle" dominant-baseline="middle" alignment-baseline="middle" dy="1em"><g><rect class="background"></rect><text y="-10.1"><tspan dy="1.1em" y="-0.1em" x="0" class="text-outer-tspan"><tspan font-weight="normal" class="text-inner-tspan" font-style="normal">get</tspan><tspan font-weight="normal" class="text-inner-tspan" font-style="normal"> _auth</tspan><tspan font-weight="normal" class="text-inner-tspan" font-style="normal"> _token</tspan></tspan></text></g></g></g><g transform="translate(655.7615618611503, 306.5638112922045)" class="mindmap-node section-0"><g><path d="M0 32.8 v-27.799999999999997 q0,-5 5,-5 h138.265625 q5,0 5,5 v32.8 H0 Z" class="node-bkg node-no-border" id="node-7"></path><line y2="37.8" x2="148.265625" y1="37.8" x1="0" class="node-line-0"></line></g><g transform="translate(74.1328125, 5)" text-anchor="middle" dominant-baseline="middle" alignment-baseline="middle" dy="1em"><g><rect class="background"></rect><text y="-10.1"><tspan dy="1.1em" y="-0.1em" x="0" class="text-outer-tspan"><tspan font-weight="normal" class="text-inner-tspan" font-style="normal">_get</tspan><tspan font-weight="normal" class="text-inner-tspan" font-style="normal"> _room</tspan><tspan font-weight="normal" class="text-inner-tspan" font-style="normal"> _data</tspan></tspan></text></g></g></g><g transform="translate(723.5955386686223, 15)" class="mindmap-node section-0"><g><path d="M0 32.8 v-27.799999999999997 q0,-5 5,-5 h106.234375 q5,0 5,5 v32.8 H0 Z" class="node-bkg node-no-border" id="node-8"></path><line y2="37.8" x2="116.234375" y1="37.8" x1="0" class="node-line-0"></line></g><g transform="translate(58.1171875, 5)" text-anchor="middle" dominant-baseline="middle" alignment-baseline="middle" dy="1em"><g><rect class="background"></rect><text y="-10.1"><tspan dy="1.1em" y="-0.1em" x="0" class="text-outer-tspan"><tspan font-weight="normal" class="text-inner-tspan" font-style="normal">create</tspan><tspan font-weight="normal" class="text-inner-tspan" font-style="normal"> _room</tspan></tspan></text></g></g></g><g transform="translate(677.0285754383635, 88.16798533000247)" class="mindmap-node section-0"><g><path d="M0 32.8 v-27.799999999999997 q0,-5 5,-5 h161.71875 q5,0 5,5 v32.8 H0 Z" class="node-bkg node-no-border" id="node-9"></path><line y2="37.8" x2="171.71875" y1="37.8" x1="0" class="node-line-0"></line></g><g transform="translate(85.859375, 5)" text-anchor="middle" dominant-baseline="middle" alignment-baseline="middle" dy="1em"><g><rect class="background"></rect><text y="-10.1"><tspan dy="1.1em" y="-0.1em" x="0" class="text-outer-tspan"><tspan font-weight="normal" class="text-inner-tspan" font-style="normal">_get</tspan><tspan font-weight="normal" class="text-inner-tspan" font-style="normal"> _message</tspan><tspan font-weight="normal" class="text-inner-tspan" font-style="normal"> _data</tspan></tspan></text></g></g></g><g transform="translate(595.5905004347001, 214.18445490231989)" class="mindmap-node section-0"><g><path d="M0 32.8 v-27.799999999999997 q0,-5 5,-5 h129.953125 q5,0 5,5 v32.8 H0 Z" class="node-bkg node-no-border" id="node-10"></path><line y2="37.8" x2="139.953125" y1="37.8" x1="0" class="node-line-0"></line></g><g transform="translate(69.9765625, 5)" text-anchor="middle" dominant-baseline="middle" alignment-baseline="middle" dy="1em"><g><rect class="background"></rect><text y="-10.1"><tspan dy="1.1em" y="-0.1em" x="0" class="text-outer-tspan"><tspan font-weight="normal" class="text-inner-tspan" font-style="normal">create</tspan><tspan font-weight="normal" class="text-inner-tspan" font-style="normal"> _message</tspan></tspan></text></g></g></g><g transform="translate(922.3207951796151, 158.90303218222516)" class="mindmap-node section-0"><g><path d="M0 32.8 v-27.799999999999997 q0,-5 5,-5 h155.1171875 q5,0 5,5 v32.8 H0 Z" class="node-bkg node-no-border" id="node-11"></path><line y2="37.8" x2="165.1171875" y1="37.8" x1="0" class="node-line-0"></line></g><g transform="translate(82.55859375, 5)" text-anchor="middle" dominant-baseline="middle" alignment-baseline="middle" dy="1em"><g><rect class="background"></rect><text y="-10.1"><tspan dy="1.1em" y="-0.1em" x="0" class="text-outer-tspan"><tspan font-weight="normal" class="text-inner-tspan" font-style="normal">_get</tspan><tspan font-weight="normal" class="text-inner-tspan" font-style="normal"> _entity</tspan><tspan font-weight="normal" class="text-inner-tspan" font-style="normal"> _by</tspan><tspan font-weight="normal" class="text-inner-tspan" font-style="normal"> _id</tspan></tspan></text></g></g></g><g transform="translate(536.6968775354921, 262.43186765391386)" class="mindmap-node section-0"><g><path d="M0 32.8 v-27.799999999999997 q0,-5 5,-5 h139.7890625 q5,0 5,5 v32.8 H0 Z" class="node-bkg node-no-border" id="node-12"></path><line y2="37.8" x2="149.7890625" y1="37.8" x1="0" class="node-line-0"></line></g><g transform="translate(74.89453125, 5)" text-anchor="middle" dominant-baseline="middle" alignment-baseline="middle" dy="1em"><g><rect class="background"></rect><text y="-10.1"><tspan dy="1.1em" y="-0.1em" x="0" class="text-outer-tspan"><tspan font-weight="normal" class="text-inner-tspan" font-style="normal">get</tspan><tspan font-weight="normal" class="text-inner-tspan" font-style="normal"> _room</tspan><tspan font-weight="normal" class="text-inner-tspan" font-style="normal"> _by</tspan><tspan font-weight="normal" class="text-inner-tspan" font-style="normal"> _id</tspan></tspan></text></g></g></g><g transform="translate(757.7641293762388, 202.24078999317555)" class="mindmap-node section-0"><g><path d="M0 32.8 v-27.799999999999997 q0,-5 5,-5 h165.65625 q5,0 5,5 v32.8 H0 Z" class="node-bkg node-no-border" id="node-13"></path><line y2="37.8" x2="175.65625" y1="37.8" x1="0" class="node-line-0"></line></g><g transform="translate(87.828125, 5)" text-anchor="middle" dominant-baseline="middle" alignment-baseline="middle" dy="1em"><g><rect class="background"></rect><text y="-10.1"><tspan dy="1.1em" y="-0.1em" x="0" class="text-outer-tspan"><tspan font-weight="normal" class="text-inner-tspan" font-style="normal">get</tspan><tspan font-weight="normal" class="text-inner-tspan" font-style="normal"> _room</tspan><tspan font-weight="normal" class="text-inner-tspan" font-style="normal"> _by</tspan><tspan font-weight="normal" class="text-inner-tspan" font-style="normal"> _name</tspan></tspan></text></g></g></g><g transform="translate(852.0069300717505, 45.8831663374034)" class="mindmap-node section-0"><g><path d="M0 32.8 v-27.799999999999997 q0,-5 5,-5 h163.2421875 q5,0 5,5 v32.8 H0 Z" class="node-bkg node-no-border" id="node-14"></path><line y2="37.8" x2="173.2421875" y1="37.8" x1="0" class="node-line-0"></line></g><g transform="translate(86.62109375, 5)" text-anchor="middle" dominant-baseline="middle" alignment-baseline="middle" dy="1em"><g><rect class="background"></rect><text y="-10.1"><tspan dy="1.1em" y="-0.1em" x="0" class="text-outer-tspan"><tspan font-weight="normal" class="text-inner-tspan" font-style="normal">get</tspan><tspan font-weight="normal" class="text-inner-tspan" font-style="normal"> _message</tspan><tspan font-weight="normal" class="text-inner-tspan" font-style="normal"> _by</tspan><tspan font-weight="normal" class="text-inner-tspan" font-style="normal"> _id</tspan></tspan></text></g></g></g><g transform="translate(732.7786384922372, 250.9738805534698)" class="mindmap-node section-0"><g><path d="M0 32.8 v-27.799999999999997 q0,-5 5,-5 h89.9921875 q5,0 5,5 v32.8 H0 Z" class="node-bkg node-no-border" id="node-15"></path><line y2="37.8" x2="99.9921875" y1="37.8" x1="0" class="node-line-0"></line></g><g transform="translate(49.99609375, 5)" text-anchor="middle" dominant-baseline="middle" alignment-baseline="middle" dy="1em"><g><rect class="background"></rect><text y="-10.1"><tspan dy="1.1em" y="-0.1em" x="0" class="text-outer-tspan"><tspan font-weight="normal" class="text-inner-tspan" font-style="normal">get</tspan><tspan font-weight="normal" class="text-inner-tspan" font-style="normal"> _rooms</tspan></tspan></text></g></g></g><g transform="translate(817.0694252647245, 288.77382003204275)" class="mindmap-node section-0"><g><path d="M0 32.8 v-27.799999999999997 q0,-5 5,-5 h163.3359375 q5,0 5,5 v32.8 H0 Z" class="node-bkg node-no-border" id="node-16"></path><line y2="37.8" x2="173.3359375" y1="37.8" x1="0" class="node-line-0"></line></g><g transform="translate(86.66796875, 5)" text-anchor="middle" dominant-baseline="middle" alignment-baseline="middle" dy="1em"><g><rect class="background"></rect><text y="-10.1"><tspan dy="1.1em" y="-0.1em" x="0" class="text-outer-tspan"><tspan font-weight="normal" class="text-inner-tspan" font-style="normal">get</tspan><tspan font-weight="normal" class="text-inner-tspan" font-style="normal"> _room</tspan><tspan font-weight="normal" class="text-inner-tspan" font-style="normal"> _messages</tspan></tspan></text></g></g></g><g transform="translate(881.637415345157, 97.81096802655998)" class="mindmap-node section-0"><g><path d="M0 32.8 v-27.799999999999997 q0,-5 5,-5 h195.703125 q5,0 5,5 v32.8 H0 Z" class="node-bkg node-no-border" id="node-17"></path><line y2="37.8" x2="205.703125" y1="37.8" x1="0" class="node-line-0"></line></g><g transform="translate(102.8515625, 5)" text-anchor="middle" dominant-baseline="middle" alignment-baseline="middle" dy="1em"><g><rect class="background"></rect><text y="-10.1"><tspan dy="1.1em" y="-0.1em" x="0" class="text-outer-tspan"><tspan font-weight="normal" class="text-inner-tspan" font-style="normal">_update</tspan><tspan font-weight="normal" class="text-inner-tspan" font-style="normal"> _users</tspan><tspan font-weight="normal" class="text-inner-tspan" font-style="normal"> _in</tspan><tspan font-weight="normal" class="text-inner-tspan" font-style="normal"> _room</tspan></tspan></text></g></g></g><g transform="translate(903.7693392688882, 241.87187043488368)" class="mindmap-node section-0"><g><path d="M0 32.8 v-27.799999999999997 q0,-5 5,-5 h157.640625 q5,0 5,5 v32.8 H0 Z" class="node-bkg node-no-border" id="node-18"></path><line y2="37.8" x2="167.640625" y1="37.8" x1="0" class="node-line-0"></line></g><g transform="translate(83.8203125, 5)" text-anchor="middle" dominant-baseline="middle" alignment-baseline="middle" dy="1em"><g><rect class="background"></rect><text y="-10.1"><tspan dy="1.1em" y="-0.1em" x="0" class="text-outer-tspan"><tspan font-weight="normal" class="text-inner-tspan" font-style="normal">add</tspan><tspan font-weight="normal" class="text-inner-tspan" font-style="normal"> _user</tspan><tspan font-weight="normal" class="text-inner-tspan" font-style="normal"> _to</tspan><tspan font-weight="normal" class="text-inner-tspan" font-style="normal"> _room</tspan></tspan></text></g></g></g><g transform="translate(365.7964653379422, 222.51607966747838)" class="mindmap-node section-0"><g><path d="M0 32.8 v-27.799999999999997 q0,-5 5,-5 h203.859375 q5,0 5,5 v32.8 H0 Z" class="node-bkg node-no-border" id="node-19"></path><line y2="37.8" x2="213.859375" y1="37.8" x1="0" class="node-line-0"></line></g><g transform="translate(106.9296875, 5)" text-anchor="middle" dominant-baseline="middle" alignment-baseline="middle" dy="1em"><g><rect class="background"></rect><text y="-10.1"><tspan dy="1.1em" y="-0.1em" x="0" class="text-outer-tspan"><tspan font-weight="normal" class="text-inner-tspan" font-style="normal">remove</tspan><tspan font-weight="normal" class="text-inner-tspan" font-style="normal"> _user</tspan><tspan font-weight="normal" class="text-inner-tspan" font-style="normal"> _from</tspan><tspan font-weight="normal" class="text-inner-tspan" font-style="normal"> _room</tspan></tspan></text></g></g></g><g transform="translate(164.9812620853669, 221.30263814518696)" class="mindmap-node section-1"><g><path d="M0 32.8 v-27.799999999999997 q0,-5 5,-5 h109.515625 q5,0 5,5 v32.8 H0 Z" class="node-bkg node-no-border" id="node-20"></path><line y2="37.8" x2="119.515625" y1="37.8" x1="0" class="node-line-1"></line></g><g transform="translate(59.7578125, 5)" text-anchor="middle" dominant-baseline="middle" alignment-baseline="middle" dy="1em"><g><rect class="background"></rect><text y="-10.1"><tspan dy="1.1em" y="-0.1em" x="0" class="text-outer-tspan"><tspan font-weight="normal" class="text-inner-tspan" font-style="normal">Dependencies</tspan></tspan></text></g></g></g><g transform="translate(15, 203.4496045056677)" class="mindmap-node section-1"><g><path d="M0 32.8 v-27.799999999999997 q0,-5 5,-5 h74.4453125 q5,0 5,5 v32.8 H0 Z" class="node-bkg node-no-border" id="node-21"></path><line y2="37.8" x2="84.4453125" y1="37.8" x1="0" class="node-line-1"></line></g><g transform="translate(42.22265625, 5)" text-anchor="middle" dominant-baseline="middle" alignment-baseline="middle" dy="1em"><g><rect class="background"></rect><text y="-10.1"><tspan dy="1.1em" y="-0.1em" x="0" class="text-outer-tspan"><tspan font-weight="normal" class="text-inner-tspan" font-style="normal">pymongo</tspan></tspan></text></g></g></g><g transform="translate(179.89177232119084, 127.2349978272083)" class="mindmap-node section-1"><g><path d="M0 32.8 v-27.799999999999997 q0,-5 5,-5 h72.0078125 q5,0 5,5 v32.8 H0 Z" class="node-bkg node-no-border" id="node-22"></path><line y2="37.8" x2="82.0078125" y1="37.8" x1="0" class="node-line-1"></line></g><g transform="translate(41.00390625, 5)" text-anchor="middle" dominant-baseline="middle" alignment-baseline="middle" dy="1em"><g><rect class="background"></rect><text y="-10.1"><tspan dy="1.1em" y="-0.1em" x="0" class="text-outer-tspan"><tspan font-weight="normal" class="text-inner-tspan" font-style="normal">ObjectId</tspan></tspan></text></g></g></g><g transform="translate(52.70628297488918, 271.6608208703183)" class="mindmap-node section-1"><g><path d="M0 32.8 v-27.799999999999997 q0,-5 5,-5 h49.125 q5,0 5,5 v32.8 H0 Z" class="node-bkg node-no-border" id="node-23"></path><line y2="37.8" x2="59.125" y1="37.8" x1="0" class="node-line-1"></line></g><g transform="translate(29.5625, 5)" text-anchor="middle" dominant-baseline="middle" alignment-baseline="middle" dy="1em"><g><rect class="background"></rect><text y="-10.1"><tspan dy="1.1em" y="-0.1em" x="0" class="text-outer-tspan"><tspan font-weight="normal" class="text-inner-tspan" font-style="normal">Room</tspan></tspan></text></g></g></g><g transform="translate(101.53458102834725, 146.85003595986814)" class="mindmap-node section-1"><g><path d="M0 32.8 v-27.799999999999997 q0,-5 5,-5 h42.578125 q5,0 5,5 v32.8 H0 Z" class="node-bkg node-no-border" id="node-24"></path><line y2="37.8" x2="52.578125" y1="37.8" x1="0" class="node-line-1"></line></g><g transform="translate(26.2890625, 5)" text-anchor="middle" dominant-baseline="middle" alignment-baseline="middle" dy="1em"><g><rect class="background"></rect><text y="-10.1"><tspan dy="1.1em" y="-0.1em" x="0" class="text-outer-tspan"><tspan font-weight="normal" class="text-inner-tspan" font-style="normal">User</tspan></tspan></text></g></g></g><g transform="translate(247.70456713851775, 307.1678487082979)" class="mindmap-node section-1"><g><path d="M0 32.8 v-27.799999999999997 q0,-5 5,-5 h69.46875 q5,0 5,5 v32.8 H0 Z" class="node-bkg node-no-border" id="node-25"></path><line y2="37.8" x2="79.46875" y1="37.8" x1="0" class="node-line-1"></line></g><g transform="translate(39.734375, 5)" text-anchor="middle" dominant-baseline="middle" alignment-baseline="middle" dy="1em"><g><rect class="background"></rect><text y="-10.1"><tspan dy="1.1em" y="-0.1em" x="0" class="text-outer-tspan"><tspan font-weight="normal" class="text-inner-tspan" font-style="normal">Message</tspan></tspan></text></g></g></g><g transform="translate(297.0590311849335, 176.67523428708637)" class="mindmap-node section-1"><g><path d="M0 32.8 v-27.799999999999997 q0,-5 5,-5 h82.0859375 q5,0 5,5 v32.8 H0 Z" class="node-bkg node-no-border" id="node-26"></path><line y2="37.8" x2="92.0859375" y1="37.8" x1="0" class="node-line-1"></line></g><g transform="translate(46.04296875, 5)" text-anchor="middle" dominant-baseline="middle" alignment-baseline="middle" dy="1em"><g><rect class="background"></rect><text y="-10.1"><tspan dy="1.1em" y="-0.1em" x="0" class="text-outer-tspan"><tspan font-weight="normal" class="text-inner-tspan" font-style="normal">DB</tspan><tspan font-weight="normal" class="text-inner-tspan" font-style="normal"> _NAME</tspan></tspan></text></g></g></g><g transform="translate(340.7973466989189, 264.0020946186248)" class="mindmap-node section-1"><g><path d="M0 32.8 v-27.799999999999997 q0,-5 5,-5 h43.6015625 q5,0 5,5 v32.8 H0 Z" class="node-bkg node-no-border" id="node-27"></path><line y2="37.8" x2="53.6015625" y1="37.8" x1="0" class="node-line-1"></line></g><g transform="translate(26.80078125, 5)" text-anchor="middle" dominant-baseline="middle" alignment-baseline="middle" dy="1em"><g><rect class="background"></rect><text y="-10.1"><tspan dy="1.1em" y="-0.1em" x="0" class="text-outer-tspan"><tspan font-weight="normal" class="text-inner-tspan" font-style="normal">SALT</tspan></tspan></text></g></g></g><g transform="translate(114.77159623988484, 317.98151041060464)" class="mindmap-node section-1"><g><path d="M0 32.8 v-27.799999999999997 q0,-5 5,-5 h102.3125 q5,0 5,5 v32.8 H0 Z" class="node-bkg node-no-border" id="node-28"></path><line y2="37.8" x2="112.3125" y1="37.8" x1="0" class="node-line-1"></line></g><g transform="translate(56.15625, 5)" text-anchor="middle" dominant-baseline="middle" alignment-baseline="middle" dy="1em"><g><rect class="background"></rect><text y="-10.1"><tspan dy="1.1em" y="-0.1em" x="0" class="text-outer-tspan"><tspan font-weight="normal" class="text-inner-tspan" font-style="normal">MONGO</tspan><tspan font-weight="normal" class="text-inner-tspan" font-style="normal"> _URI</tspan></tspan></text></g></g></g><g transform="translate(291.4675510624352, 77.46150053908434)" class="mindmap-node section-2"><g><path d="M0 32.8 v-27.799999999999997 q0,-5 5,-5 h33.9609375 q5,0 5,5 v32.8 H0 Z" class="node-bkg node-no-border" id="node-29"></path><line y2="37.8" x2="43.9609375" y1="37.8" x1="0" class="node-line-2"></line></g><g transform="translate(21.98046875, 5)" text-anchor="middle" dominant-baseline="middle" alignment-baseline="middle" dy="1em"><g><rect class="background"></rect><text y="-10.1"><tspan dy="1.1em" y="-0.1em" x="0" class="text-outer-tspan"><tspan font-weight="normal" class="text-inner-tspan" font-style="normal">run</tspan></tspan></text></g></g></g><g transform="translate(343.3690102835353, 33.749911485412554)" class="mindmap-node section-3"><g><path d="M0 32.8 v-27.799999999999997 q0,-5 5,-5 h117.125 q5,0 5,5 v32.8 H0 Z" class="node-bkg node-no-border" id="node-30"></path><line y2="37.8" x2="127.125" y1="37.8" x1="0" class="node-line-3"></line></g><g transform="translate(63.5625, 5)" text-anchor="middle" dominant-baseline="middle" alignment-baseline="middle" dy="1em"><g><rect class="background"></rect><text y="-10.1"><tspan dy="1.1em" y="-0.1em" x="0" class="text-outer-tspan"><tspan font-weight="normal" class="text-inner-tspan" font-style="normal">db</tspan><tspan font-weight="normal" class="text-inner-tspan" font-style="normal"> _operations</tspan></tspan></text></g></g></g></g></svg>